<svg width="0" height="0" class="hidden">
  <symbol viewBox="0 -11 512 511" xmlns="http://www.w3.org/2000/svg" id="linkedin">
    <path d="M6.488 159.684h109.754V489.89H6.488zM62.09.5C24.547.5 0 25.152 0 57.555c0 31.687 23.816 57.043 60.648 57.043h.715c38.278 0 62.098-25.356 62.098-57.043C122.746 25.152 99.64.5 62.09.5zm323.555 151.434c-58.235 0-84.329 32.004-98.915 54.507v-46.757H176.973V489.89h109.754V305.488c0-9.87.714-19.726 3.613-26.785 7.933-19.715 25.992-40.137 56.312-40.137 39.715 0 55.602 30.282 55.602 74.672v176.653H512V300.555c0-101.426-54.148-148.621-126.355-148.621zm0 0"
      ></path>
  </symbol>
  <symbol xmlns="http://www.w3.org/2000/svg" viewBox="0 0 512 512" id="github">
    <path d="M255.968 5.329C114.624 5.329 0 120.401 0 262.353c0 113.536 73.344 209.856 175.104 243.872 12.8 2.368 17.472-5.568 17.472-12.384 0-6.112-.224-22.272-.352-43.712-71.2 15.52-86.24-34.464-86.24-34.464-11.616-29.696-28.416-37.6-28.416-37.6-23.264-15.936 1.728-15.616 1.728-15.616 25.696 1.824 39.2 26.496 39.2 26.496 22.848 39.264 59.936 27.936 74.528 21.344 2.304-16.608 8.928-27.936 16.256-34.368-56.832-6.496-116.608-28.544-116.608-127.008 0-28.064 9.984-51.008 26.368-68.992-2.656-6.496-11.424-32.64 2.496-68 0 0 21.504-6.912 70.4 26.336 20.416-5.696 42.304-8.544 64.096-8.64 21.728.128 43.648 2.944 64.096 8.672 48.864-33.248 70.336-26.336 70.336-26.336 13.952 35.392 5.184 61.504 2.56 68 16.416 17.984 26.304 40.928 26.304 68.992 0 98.72-59.84 120.448-116.864 126.816 9.184 7.936 17.376 23.616 17.376 47.584 0 34.368-.32 62.08-.32 70.496 0 6.88 4.608 14.88 17.6 12.352C438.72 472.145 512 375.857 512 262.353 512 120.401 397.376 5.329 255.968 5.329z"></path>
  </symbol>
</svg>