<svg width="0" height="0" class="hidden">
  <symbol xmlns="http://www.w3.org/2000/svg" viewBox="0 0 511.995 511.995" id="right">
    <path d="M381.039 248.62L146.373 3.287C142.29-.942 135.54-1.13 131.29 2.954c-4.25 4.073-4.396 10.823-.333 15.083L358.56 255.995 130.956 493.954c-4.063 4.26-3.917 11.01.333 15.083a10.63 10.63 0 0 0 7.375 2.958 10.65 10.65 0 0 0 7.708-3.292L381.039 263.37c3.938-4.125 3.938-10.625 0-14.75z"></path>
  </symbol>
  <symbol xmlns="http://www.w3.org/2000/svg" viewBox="0 0 443.52 443.52" id="back">
    <path d="M143.492 221.863L336.226 29.129c6.663-6.664 6.663-17.468 0-24.132-6.665-6.662-17.468-6.662-24.132 0l-204.8 204.8c-6.662 6.664-6.662 17.468 0 24.132l204.8 204.8c6.78 6.548 17.584 6.36 24.132-.42 6.387-6.614 6.387-17.099 0-23.712L143.492 221.863z"></path>
  </symbol>
  <symbol xmlns="http://www.w3.org/2000/svg" viewBox="0 0 511.991 511.991" id="left">
    <path d="M153.433 255.991L381.037 18.033c4.063-4.26 3.917-11.01-.333-15.083-4.229-4.073-10.979-3.896-15.083.333L130.954 248.616c-3.937 4.125-3.937 10.625 0 14.75L365.621 508.7a10.65 10.65 0 0 0 7.708 3.292c2.646 0 5.313-.979 7.375-2.958 4.25-4.073 4.396-10.823.333-15.083l-227.604-237.96z"></path>
  </symbol>
  <symbol viewBox="0 0 329.269 329" xmlns="http://www.w3.org/2000/svg" id="close">
    <path d="M194.8 164.77L323.013 36.555c8.343-8.34 8.343-21.825 0-30.164-8.34-8.34-21.825-8.34-30.164 0L164.633 134.605 36.422 6.391c-8.344-8.34-21.824-8.34-30.164 0-8.344 8.34-8.344 21.824 0 30.164l128.21 128.215L6.259 292.984c-8.344 8.34-8.344 21.825 0 30.164a21.266 21.266 0 0 0 15.082 6.25c5.46 0 10.922-2.09 15.082-6.25l128.21-128.214 128.216 128.214a21.273 21.273 0 0 0 15.082 6.25c5.46 0 10.922-2.09 15.082-6.25 8.343-8.34 8.343-21.824 0-30.164zm0 0"></path>
  </symbol>
  <symbol xmlns="http://www.w3.org/2000/svg" viewBox="0 0 443.52 443.52" id="next">
    <path d="M336.226 209.591l-204.8-204.8c-6.78-6.548-17.584-6.36-24.132.42-6.388 6.614-6.388 17.099 0 23.712l192.734 192.734-192.734 192.734c-6.663 6.664-6.663 17.468 0 24.132 6.665 6.663 17.468 6.663 24.132 0l204.8-204.8c6.663-6.665 6.663-17.468 0-24.132z"></path>
  </symbol>
</svg>